<?xml version="1.0" encoding="UTF-8" standalone="no"?>
<!-- Created with Inkscape (http://www.inkscape.org/) -->

<svg
   xmlns:dc="http://purl.org/dc/elements/1.1/"
   xmlns:cc="http://creativecommons.org/ns#"
   xmlns:rdf="http://www.w3.org/1999/02/22-rdf-syntax-ns#"
   xmlns:svg="http://www.w3.org/2000/svg"
   xmlns="http://www.w3.org/2000/svg"
   xmlns:sodipodi="http://sodipodi.sourceforge.net/DTD/sodipodi-0.dtd"
   xmlns:inkscape="http://www.inkscape.org/namespaces/inkscape"
   width="128"
   height="128"
   viewBox="0 0 33.866666 33.866668"
   version="1.1"
   id="svg8"
   inkscape:version="0.92.3 (2405546, 2018-03-11)"
   sodipodi:docname="PataPerro.svg">
  <defs
     id="defs2" />
  <sodipodi:namedview
     id="base"
     pagecolor="#ffffff"
     bordercolor="#666666"
     borderopacity="1.0"
     inkscape:pageopacity="0.0"
     inkscape:pageshadow="2"
     inkscape:zoom="5.6568543"
     inkscape:cx="50.794046"
     inkscape:cy="62.907229"
     inkscape:document-units="mm"
     inkscape:current-layer="layer2"
     showgrid="false"
     units="px"
     inkscape:snap-center="true"
     inkscape:window-width="1920"
     inkscape:window-height="1017"
     inkscape:window-x="-8"
     inkscape:window-y="-8"
     inkscape:window-maximized="1" />
  <metadata
     id="metadata5">
    <rdf:RDF>
      <cc:Work
         rdf:about="">
        <dc:format>image/svg+xml</dc:format>
        <dc:type
           rdf:resource="http://purl.org/dc/dcmitype/StillImage" />
        <dc:title />
      </cc:Work>
    </rdf:RDF>
  </metadata>
  <g
     inkscape:groupmode="layer"
     id="layer3"
     inkscape:label="Layer 3"
     style="display:none">
    <rect
       style="fill:#1a1a1a;fill-opacity:1;stroke:none;stroke-width:0.235;stroke-miterlimit:4;stroke-dasharray:none;stroke-opacity:1"
       id="rect837"
       width="40.738556"
       height="37.558052"
       x="-3.8820899"
       y="-1.352775"
       ry="4.7624998" />
  </g>
  <g
     inkscape:groupmode="layer"
     id="layer2"
     inkscape:label="Layer 2"
     style="display:inline">
    <path
       style="fill:#ffffff;fill-opacity:1;stroke:none;stroke-width:0.15701111;stroke-miterlimit:4;stroke-dasharray:none;stroke-opacity:1"
       d="m 0.98715629,136.60604 c -4.39911489,-0.57642 -8.78959569,-3.05011 -11.59216829,-6.53126 -1.469816,-1.8257 -2.77197,-4.40775 -3.433819,-6.80895 l -0.486112,-1.76362 V 65.994332 c 0,-53.491999 0.01194,-55.559242 0.32883,-56.9220951 0.759847,-3.2679159 2.307151,-6.1433976 4.5813522,-8.51390449 C -6.7974743,-2.3782575 -3.3482112,-4.1880115 0.58946476,-4.7956051 1.5798009,-4.9484166 17.414885,-4.9857096 63.168414,-4.9429841 l 61.253126,0.057199 1.41421,0.4025392 c 2.12368,0.6044785 5.08191,2.1254313 6.7548,3.472924 0.79832,0.64303958 1.97761,1.82233528 2.62065,2.6206569 1.39805,1.7356503 2.91085,4.7113845 3.47894,6.8431831 l 0.40041,1.5026019 0.0476,55.242717 c 0.0527,61.098513 0.13197,56.709233 -1.08265,59.942903 -2.12598,5.66 -6.7482,9.65724 -13.01528,11.25546 -1.05784,0.26977 -5.98318,0.29544 -62.048622,0.32332 -33.494764,0.0167 -61.3967811,-0.0349 -62.00448171,-0.11448 z M 88.093928,111.57681 c 7.991657,-1.40316 13.449672,-7.18782 13.902872,-14.734945 0.12396,-2.064232 -0.19457,-3.582503 -1.12177,-5.346971 -0.8125,-1.546201 -2.398512,-3.239957 -6.284786,-6.711755 -1.663595,-1.486171 -3.870422,-3.457848 -4.90406,-4.381506 -3.827868,-3.420582 -10.077042,-9.42477 -10.784297,-10.361524 -0.906644,-1.20084 -1.735173,-2.738234 -3.371196,-6.255485 -2.121484,-4.560938 -4.841736,-8.070523 -7.127655,-9.195876 -1.265481,-0.622995 -3.327769,-1.042003 -5.172861,-1.051005 -1.783488,-0.0087 -5.110788,0.597832 -6.731337,1.227055 -3.501649,1.359614 -6.335401,4.672395 -9.776094,11.428686 -1.507332,2.959865 -2.022695,3.772246 -3.289268,5.18498 -1.404591,1.566682 -5.07228,4.499633 -8.300067,6.637341 -1.661605,1.100453 -3.583096,2.485719 -4.269977,3.07837 -1.274203,1.099397 -5.301374,5.442242 -6.486964,6.99545 -2.010833,2.634333 -2.951268,6.126643 -2.56599,9.528808 0.269655,2.381173 0.604661,3.508837 1.712409,5.764167 0.876993,1.78552 1.182682,2.21675 2.511769,3.5433 1.203043,1.20075 1.821283,1.66169 3.015856,2.24852 2.162955,1.06255 4.179894,1.50949 6.894292,1.52775 2.043823,0.0138 2.33578,-0.0279 3.889087,-0.55408 1.924474,-0.65196 6.020583,-2.65336 10.253048,-5.00974 5.847054,-3.25528 7.792048,-3.95164 11.048543,-3.95564 2.083103,-0.003 2.908972,0.17395 5.480078,1.17124 1.756073,0.68115 3.073561,1.52669 6.010407,3.8574 4.137031,3.28318 6.495078,4.59392 9.545942,5.30621 2.326724,0.54322 3.12034,0.55116 5.922019,0.0592 z M 105.43324,77.855124 c 4.62575,-1.412522 9.13913,-6.413925 11.26178,-12.47951 0.87721,-2.506664 1.17283,-4.243433 1.17353,-6.894291 7e-4,-2.665033 -0.25328,-3.947581 -1.14344,-5.774411 -1.92217,-3.944745 -6.10075,-5.223331 -10.35596,-3.168766 -3.87482,1.870903 -7.562989,6.217314 -9.386865,11.062183 -0.983748,2.613187 -1.311763,4.221062 -1.406948,6.896605 -0.06949,1.953193 -0.02437,2.877334 0.189584,3.882868 0.353117,1.659612 1.258599,3.566596 2.191453,4.615295 0.797392,0.896415 2.455176,1.863676 3.613606,2.108409 0.93834,0.198237 2.79067,0.07914 3.86326,-0.248382 z M 28.921506,70.981381 c 2.309363,-1.14135 3.894136,-3.312486 4.758977,-6.519782 0.330732,-1.226541 0.397263,-1.930108 0.39834,-4.212509 0.0019,-4.071917 -0.744999,-7.148636 -2.725119,-11.22532 -3.750195,-7.720935 -10.436489,-12.356675 -15.805456,-10.958237 -3.564251,0.928369 -6.0360875,4.566333 -6.4520094,9.495841 -0.5639477,6.683907 2.2013504,14.216956 7.0998064,19.34083 3.205188,3.352685 6.295117,4.87816 9.692318,4.785027 1.557972,-0.04271 1.810084,-0.101381 3.033143,-0.70585 z M 50.867037,50.029196 c 4.263461,-1.995114 6.868478,-8.22962 6.587758,-15.76628 C 57.237411,28.426704 55.795808,23.61038 52.957259,19.236897 47.58551,10.96039 39.694725,10.593427 35.85178,18.441402 c -4.930664,10.069287 -0.43917,26.919749 8.358068,31.356443 1.493002,0.752964 2.166055,0.897472 3.935606,0.844999 1.270018,-0.03766 1.695958,-0.133699 2.721583,-0.613648 z m 32.724216,-0.81149 c 2.799497,-1.016164 5.500949,-3.820261 7.339671,-7.618557 1.001623,-2.069082 1.455904,-3.377123 2.056706,-5.92202 0.540476,-2.289362 0.761825,-7.386762 0.421758,-9.712504 -0.814989,-5.573728 -3.27402,-9.761549 -6.678832,-11.374293 -1.115716,-0.528477 -1.331039,-0.568348 -3.069372,-0.568348 -1.85306,0 -1.883241,0.0068 -3.435625,0.776054 -3.342722,1.656383 -6.219786,5.457013 -7.843149,10.360878 -1.681353,5.079045 -1.876976,10.699512 -0.54452,15.644737 0.19648,0.729204 0.768786,2.1603 1.271795,3.180215 0.74852,1.517723 1.15671,2.097995 2.248352,3.196206 2.488928,2.5039 5.14065,3.160173 8.233216,2.037632 z"
       id="path839"
       inkscape:connector-curvature="0"
       transform="scale(0.26458333)" />
  </g>
  <g
     inkscape:label="Layer 1"
     inkscape:groupmode="layer"
     id="layer1"
     transform="translate(0,-263.13332)"
     style="display:inline">
    <path
       style="fill:#000000;fill-opacity:1;stroke:none;stroke-width:0.33656022px;stroke-linecap:butt;stroke-linejoin:miter;stroke-opacity:1"
       d="m 14.805485,290.14029 c -1.482943,0.63847 -3.674271,2.21974 -5.1085035,2.31385 -1.9382071,-0.0378 -3.1322894,-0.8016 -3.756252,-2.61435 -0.3576867,-1.26962 -0.3377514,-2.67353 1.0818006,-4.05676 1.9332179,-2.23371 1.7925129,-1.32225 4.3522709,-3.61205 0.9616,-1.07178 0.622966,-1.05623 1.754813,-2.89271 1.075368,-1.52304 1.716249,-1.82803 3.541107,-1.98677 1.649126,0.0721 1.937871,0.46633 2.977,2.01283 0.869254,1.81558 0.863239,2.02297 1.615948,2.8127 1.62892,1.49617 1.73622,1.70228 3.548472,3.2453 0.911116,0.92674 2.39074,1.72934 2.163602,3.5459 -0.169887,1.82251 -1.577958,3.71781 -4.567602,3.8464 -2.42654,-0.26745 -3.179125,-1.89278 -4.687803,-2.5242 -1.252085,-0.4656 -1.666978,-0.46094 -2.914853,-0.0902 z"
       id="path1919"
       inkscape:connector-curvature="0"
       sodipodi:nodetypes="ccccccccccccccc" />
    <ellipse
       style="fill:#000000;fill-opacity:1;stroke:none;stroke-width:0.2989291;stroke-miterlimit:4;stroke-dasharray:none;stroke-opacity:1"
       id="path1921"
       cx="-104.7104"
       cy="257.18872"
       rx="2.9960487"
       ry="4.7171831"
       transform="rotate(-23.330789)" />
    <ellipse
       style="fill:#000000;fill-opacity:1;stroke:none;stroke-width:0.33971804;stroke-miterlimit:4;stroke-dasharray:none;stroke-opacity:1"
       id="path1923"
       cx="-32.174126"
       cy="270.88208"
       rx="3.0489178"
       ry="5.0721049"
       transform="matrix(0.99126871,-0.13185726,0.16234252,0.98673447,0,0)" />
    <ellipse
       style="fill:#000000;fill-opacity:1;stroke:none;stroke-width:0.30382594;stroke-miterlimit:4;stroke-dasharray:none;stroke-opacity:1"
       id="path1925"
       cx="55.498001"
       cy="267.12677"
       rx="2.9598427"
       ry="4.7652545"
       transform="matrix(0.99308546,0.11739362,-0.1248055,0.99218123,0,0)" />
    <ellipse
       style="fill:#000000;fill-opacity:1;stroke:none;stroke-width:0.2989291;stroke-miterlimit:4;stroke-dasharray:none;stroke-opacity:1"
       id="path1927"
       cx="142.90349"
       cy="242.32404"
       rx="2.6560717"
       ry="4.1434717"
       transform="rotate(24.76921)" />
  </g>
</svg>
